# Blender 5.0.1
# www.blender.org
o Cube
v -100.000000 100.000000 100.000000
v -100.000000 -100.000000 100.000000
v -100.000000 100.000000 -100.000000
v -100.000000 -100.000000 -100.000000
v 100.000000 100.000000 100.000000
v 100.000000 -100.000000 100.000000
v 100.000000 100.000000 -100.000000
v 100.000000 -100.000000 -100.000000
vn -0.0000 -1.0000 -0.0000
vn -0.0000 -0.0000 1.0000
vn -1.0000 -0.0000 -0.0000
vn -0.0000 1.0000 -0.0000
vn 1.0000 -0.0000 -0.0000
vn -0.0000 -0.0000 -1.0000
vt 0.499 0.665
vt 0.499 1.0
vt 0.251 1.0
vt 0.251 0.665
vt 0.75 0.334
vt 1.0 0.334
vt 1.0 0.665
vt 0.75 0.665
vt 0.0 0.334
vt 0.251 0.334
vt 0.251 0.665
vt 0.0 0.665
vt 0.251 0.334
vt 0.251 0.0
vt 0.499 0.0
vt 0.499 0.334
vt 0.499 0.334
vt 0.75 0.334
vt 0.75 0.665
vt 0.499 0.665
vt 0.251 0.334
vt 0.499 0.334
vt 0.499 0.665
vt 0.251 0.665
s 0
f 1/1/1 3/2/1 7/3/1 5/4/1
f 4/5/2 8/6/2 7/7/2 3/8/2
f 8/9/3 6/10/3 5/11/3 7/12/3
f 6/13/4 8/14/4 4/15/4 2/16/4
f 2/17/5 4/18/5 3/19/5 1/20/5
f 6/21/6 2/22/6 1/23/6 5/24/6
