<svg xmlns="http://www.w3.org/2000/svg" width="12" height="12" fill="currentColor" viewBox="0 0 12 12">
  <g clip-path="url(#a)">
    <path d="M5.5.5h1v2h-1zm0 11h1v-2h-1zm-1-9h1v2h-1zm0 7h1v-2h-1zm2-7h1v2h-1zm0 7h1v-2h-1zm-4-5h2v1h-2zm7 0h-2v1h2zm-9 1h2v1h-2zm11 0h-2v1h2zm-9 1h2v1h-2zm7 0h-2v1h2zm0-6h1v3h-1z"/>
    <path d="M8.5 1.5h3v1h-3zm-7 7h1v1h-1zm-1 1h1v1h-1zm1 1h1v1h-1zm1-1h1v1h-1z"/>
  </g>
  <defs>
    <clipPath id="a">
      <path fill="#fff" d="M0 0h12v12H0z"/>
    </clipPath>
  </defs>
</svg>
